<svg xmlns="http://www.w3.org/2000/svg" viewBox="0 0 1197.76 204.93"><defs><style>.cls-1{fill:#fff;}.cls-1,.cls-2{stroke:#000;stroke-miterlimit:10;}</style></defs><g id="Calque_2" data-name="Calque 2"><g id="Calque_1-2" data-name="Calque 1"><path class="cls-1" d="M715,.7H602.15l.12,2H715Zm-584.26,2h93.78c.71-2-.31-2.23-1.86-2.23q-45.09,0-90.18,0c-.55,0-1.1.11-1.74.17ZM337.6,2.8c.65-2.2.6-2.28-1.92-2.28H246.09c-.69,0-1.38.08-2.26.13,0,.82.07,1.46.11,2.15Zm113.2,0c.66-2.2.6-2.28-1.92-2.28H359.29c-.69,0-1.38.08-2.26.13l.11,2.15Zm19.36-.06h94l-.1-2.05H470.16ZM337.78,204.27c.69-2.18-.57-2.23-2.08-2.23q-35.35,0-70.72,0c-.69,0-1.38.06-2.12.1v2.11Zm-207,0h75v-2h-75ZM36.45,2.73H92.77L92.66.66H36.45ZM432.18,202.21H376v2h56.17ZM168.43,43h56.33l-.1-2H168.43Zm867.7,40.34h56V81.29h-56Zm56,118.83h-56v2.07h56Zm-603.12,2.08h56.27c0-.78-.08-1.44-.11-2.07H489.06ZM640,43h56.26c0-.79-.07-1.44-.11-2.08H640ZM803.68,11.63c-10.22,8.22-10.8,23.45,0,31.63l1.3-1.55c-3.89-4.1-6.34-8.63-6.36-14.25s2.56-10.25,6.5-14.41Zm29.22,1.61c4,4,6.39,8.68,6.41,14.34s-2.51,10.25-6.47,14.29l1.59,1.48c10.62-9.33,9.82-23.5,0-31.68ZM9.09,123.65V89.59H6.83v34.06Zm113.19.06V89.45l-2.24.13v34.13ZM461.83,43.05V9h-2.31v34.1ZM384.08,89.57v34.09h2.32V89.57Zm40,34.1V89.58h-2.3v34.09ZM949.9,8.92V43.17l2.22-.12V8.92Zm37.73,0V43.17l2.22-.12V8.92Zm209.63,114.79V89.45l-2.24.13v34.13Zm-396.07,0V89.45l-2.23.13V123.7ZM836.7,89.53v34.25l2.22-.12V89.53ZM987.58,83.3h2.33v-34h-2.33ZM949.9,89.53v34.25l2.22-.12V89.53ZM1140.66,164V129.76l-2.24.12V164Zm-131.94,0V129.75l-2.22.14V164ZM44.57,170.14v34.25l2.25-.12V170.14Zm943.05-40.31V164h2.24V129.83ZM949.86,164h2.3V129.86h-2.3Zm-35.47,0V129.76l-2.23.12V164Zm-37.74,0V129.75l-2.22.14V164Zm-37.73,0V129.76l-2.23.12V164ZM233.14,49.27V83.36h2.32V49.27Zm150.94,0V83.36h2.31V49.27Zm40,34.1V49.15l-2.27.11V83.37ZM82.31,170.14V204.4l2.24-.13V170.14Zm37.74,0V204.4l2.22-.14V170.14Zm678.91,0v34.25l2.23-.11V170.14Zm37.71.06v34.07h2.26V170.2ZM952.12,83.4V49.14l-2.22.14V83.4ZM273.17,123.66V89.57h-2.32v34.09ZM6.85,129.83v34.26L9.07,164V129.83Zm869.8,74.49V170.06l-2.22.13v34.13Zm37.74,0V170.06l-2.22.13v34.13Zm188.53,0V170.06l-2.22.14v34.12ZM799,129.83v34.25l2.23-.11V129.83Zm341.75,40.41h-2.34v34h2.34ZM952.12,204.32V170.06l-2.22.13v34.13ZM424.11,164V129.87h-2.26V164Zm-40-34.13V164h2.31V129.88ZM84.56,164V129.89H82.3V164Zm-40-34.13v34.26l2.23-.13V129.83ZM1186.51,81.26h-37.29v2.09h37.29ZM319,161.88H281.57l.09,2.08H319ZM281.63,43H319.1L319,41H281.63ZM187,161.94H149.5l.18,2H187ZM1149,121.55c.07.88.12,1.48.16,2.06h37.47c-.07-.78-.12-1.39-.19-2.06ZM790.46,81.27H753.11c0,.8.07,1.45.11,2.07h37.24Zm226.4,40.35H979.53v2h37.33ZM922.53,81.3H885.08c0,.79.07,1.41.1,2h37.35ZM1055.05,164h37.08v-2a4.55,4.55,0,0,0-.8-.15c-11.63,0-23.25,0-34.88-.05C1054.83,161.72,1054.69,162.51,1055.05,164ZM696.17,121.58H658.86v2.07h37.31Zm57,2.06h37.36c-.05-.79-.1-1.45-.14-2H753.21Zm263.63,78.6a4.72,4.72,0,0,0-.79-.16c-11.71,0-23.42,0-35.13,0-1.92,0-1.57,1.05-1.31,2.25h37.23Zm-368.77-32.1v34.15h2.25V170.14ZM572.61,8.92V43.06h2.25V8.92Zm40,34.15V8.82L610.33,9V43.07Zm-2.24,46.5v34.09h2.31V89.57Zm-73.21,34.1V89.58h-2.27v34.09Zm-40.05,0h2.37v-34h-2.37Zm2.3-40.26V49.14l-2.23.13V83.4ZM534.9,49.22V83.48l2.23-.13V49.22Zm75.43,0v34h2.3v-34Zm37.77,0V83.48l2.23-.13V49.22ZM706.93,204.3V170.22h-2.21V204.3ZM537.12,164V129.77l-2.21.1V164Zm75.47,0V129.91h-2.21V164Zm-113.2,0V129.91h-2.22V164Zm243.07,6.16v34.22l2.19-.1V170.16ZM706.92,164V129.77l-2.2.1V164Zm-58.81-34.15v34.09h2.21V129.85ZM744.65,164V129.77l-2.2.1V164ZM561.44,174.18c-1.87-.69-2.68,0-3.34,1.65-3.24,7.83-6.6,15.62-9.91,23.43a15.83,15.83,0,0,0-.49,1.52c1.75.55,2.58,0,3.18-1.62,1.3-3.39,2.82-6.7,4.24-10Q558.29,181.65,561.44,174.18Zm401.88,0c3.67,8.66,7.25,17.19,11,25.67.31.69,1.6.95,2.44,1.42l.36-.56c-.21-.59-.4-1.2-.65-1.78-3.29-7.74-6.64-15.45-9.85-23.23C966,174.09,965.12,173.58,963.32,174.16ZM109.55,39.52c-.25-.65-.47-1.31-.74-2-3.27-7.67-6.58-15.33-9.77-23-.67-1.62-1.47-2.27-3.25-1.58.28.7.53,1.36.8,2,3.23,7.61,6.51,15.2,9.66,22.85C106.91,39.42,107.69,40.18,109.55,39.52ZM340.15,200.8c2.49.21,2.49.21,3.28-1.64,1.46-3.41,2.93-6.81,4.38-10.23q3.13-7.37,6.24-14.75c-1.86-.68-2.83,0-3.32,1.65a24.73,24.73,0,0,1-1.07,2.56C346.52,185.8,343.37,193.21,340.15,200.8ZM240.86,13c-1.94-.65-2.72.07-3.32,1.59-1.52,3.84-3.22,7.62-4.83,11.43q-2.86,6.77-5.71,13.5c1.94.75,2.77,0,3.33-1.67s1.43-3.41,2.16-5.12ZM147.27,160.52c-.11-.38-.16-.66-.26-.91-3.51-8.27-7-16.53-10.52-24.81-.67-1.6-1.7-1.23-2.9-1a5.35,5.35,0,0,0,.18.74c3.51,8.27,7.06,16.52,10.5,24.82C145,161,146,160.66,147.27,160.52ZM341,12.2a8.83,8.83,0,0,0,.23,1.35c3.53,8.34,7.1,16.67,10.6,25,.67,1.61,1.74,1.16,3,1-3.7-8.71-7.29-17.25-11-25.72C343.51,13.12,342.2,12.87,341,12.2ZM321.31,160.43c1.75.54,2.61.12,3.28-1.51,3.09-7.52,6.34-15,9.52-22.45.37-.87.71-1.75,1.06-2.63l-.54-.55c-.8.47-2,.74-2.33,1.42C328.58,143.19,325,151.74,321.31,160.43ZM127.74,133.86c-1.95-.61-2.72.08-3.33,1.61-1.54,3.91-3.27,7.74-4.91,11.62q-2.84,6.66-5.64,13.33c1.92.7,2.78-.06,3.34-1.69s1.38-3.28,2.07-4.92ZM227.86,93.5a4.26,4.26,0,0,0,.18.82c3.51,8.27,7.05,16.52,10.52,24.8.67,1.61,1.72,1.23,3.08,1C238,111.68,234.45,103.38,231,95,230.32,93.4,229.44,93,227.86,93.5ZM15.25,200.81c-.28-.73-.51-1.39-.79-2-3.26-7.68-6.58-15.33-9.76-23-.67-1.63-1.48-2.24-3.19-1.55a7,7,0,0,0,.25.84c3.48,8.21,7,16.39,10.42,24.62C12.85,201.26,13.9,201,15.25,200.81ZM1020,174.15c.21.57.38,1.11.6,1.62,3.32,7.81,6.69,15.59,9.92,23.43.66,1.59,1.49,2.1,3.2,1.54-.21-.58-.38-1.18-.62-1.75-3.32-7.81-6.7-15.58-9.93-23.42C1022.47,173.91,1021.55,173.66,1020,174.15Zm-740.7-13.71c-.28-.74-.51-1.41-.79-2.06-3.26-7.68-6.59-15.33-9.77-23-.66-1.61-1.54-2-3.18-1.5.18.53.33,1.06.55,1.57,3.31,7.81,6.68,15.6,9.93,23.44C276.66,160.38,277.46,161,279.29,160.44ZM264.7,79.82c1.82.56,2.71.08,3.3-1.55,1-2.74,2.25-5.39,3.39-8.08l7.19-16.89-.37-.55c-.83.39-2.15.56-2.42,1.19C272,62.48,268.41,71.09,264.7,79.82Zm89.36-26.58c-1.72-.55-2.6-.14-3.27,1.49-3.26,7.91-6.66,15.76-10,23.63-.2.48-.31,1-.47,1.5,1.75.53,2.57-.06,3.17-1.63,1.27-3.33,2.77-6.57,4.17-9.85Q350.86,60.82,354.06,53.24ZM113.84,39.51c1.79.57,2.63.08,3.29-1.52,3.09-7.51,6.34-15,9.52-22.44.37-.87.69-1.76,1-2.63l-.55-.56c-.79.48-2,.77-2.31,1.46C121.11,22.3,117.53,30.84,113.84,39.51Zm994.57,94.29c-2.51-.23-2.51-.23-3.3,1.63l-3.27,7.67q-3.67,8.66-7.33,17.3c1.84.67,2.75,0,3.32-1.62s1.43-3.42,2.15-5.12C1102.76,147.11,1105.54,140.55,1108.41,133.8Zm-767.38,0a5.5,5.5,0,0,0,.19.74c3.51,8.27,7.06,16.52,10.52,24.82.67,1.62,1.72,1.32,3,1.1-.31-.8-.57-1.53-.87-2.25-3.24-7.61-6.53-15.2-9.69-22.85C343.57,133.8,342.74,133.27,341,133.82ZM90.72,79.89c-.28-.72-.51-1.38-.78-2-3.27-7.67-6.59-15.32-9.77-23-.67-1.62-1.47-2.25-3.19-1.57a7.86,7.86,0,0,0,.25.85c3.48,8.2,7,16.38,10.41,24.62C88.31,80.34,89.36,80.08,90.72,79.89Zm343.8,120.84c1.7.54,2.59.18,3.25-1.46,2.07-5.16,4.33-10.24,6.51-15.36q2.06-4.86,4.11-9.76c-1.85-.59-2.68,0-3.29,1.57-1.54,3.92-3.27,7.76-4.92,11.63C438.29,191.8,436.42,196.25,434.52,200.73ZM128.4,79.87a10.89,10.89,0,0,0-.33-1.05c-3.48-8.2-7-16.39-10.43-24.61-.67-1.62-1.72-1.19-2.92-1a5.52,5.52,0,0,0,.17.77c3.51,8.27,7.06,16.52,10.5,24.81C126.06,80.36,127.1,80.1,128.4,79.87Zm551.24-.06c1.84.6,2.74.08,3.29-1.54.6-1.82,1.48-3.55,2.24-5.32q4.17-9.84,8.34-19.68c-1.85-.71-2.81-.06-3.31,1.61A28.8,28.8,0,0,1,689,57.64Zm37.73,0c1.82.58,2.74.1,3.29-1.54.6-1.82,1.48-3.54,2.24-5.31l8.35-19.69c-1.85-.7-2.81-.08-3.31,1.6a28.8,28.8,0,0,1-1.16,2.76Zm315.7,13.72c-1.93-.55-2.74.08-3.34,1.63-1.42,3.65-3,7.22-4.58,10.83l-6,14.12c1.93.71,2.77-.06,3.34-1.69.65-1.88,1.55-3.68,2.33-5.52C1027.57,106.48,1030.3,100.06,1033.07,93.53Zm62.29,0a5.56,5.56,0,0,0,.18.75c3.51,8.27,7.06,16.52,10.5,24.82.67,1.61,1.73,1.31,3,1.11-.31-.82-.57-1.55-.87-2.26-3.24-7.61-6.53-15.2-9.69-22.85C1097.88,93.5,1097.06,93,1095.36,93.51ZM19.51,39.5c1.93.62,2.7-.09,3.32-1.6C25.14,32.22,27.59,26.6,30,21c1.14-2.67,2.27-5.34,3.41-8-1.78-.57-2.7-.13-3.28,1.52-.88,2.48-2,4.87-3.06,7.29Zm-5,13.74c-1.75-.56-2.61-.11-3.26,1.51C9.12,60,6.81,65.26,4.58,70.51,3.27,73.6,2,76.71.67,79.82c1.9.59,2.67-.09,3.29-1.61,2.9-7,5.93-14,8.91-21.07C13.42,55.84,14,54.55,14.5,53.24Zm37.74,0c-1.88-.7-2.67,0-3.33,1.64-3.21,7.77-6.55,15.49-9.83,23.23-.24.56-.4,1.14-.6,1.7,1.75.56,2.59,0,3.2-1.59C43,74.79,44.56,71.42,46,68Q49.15,60.65,52.24,53.27ZM222,174.16c-1.95-.62-2.72.09-3.33,1.62-1.51,3.84-3.22,7.61-4.83,11.42Q211,194,208.12,200.73c1.77.57,2.72.15,3.26-1.52.6-1.82,1.49-3.54,2.25-5.31Zm5-13.73c1.81.56,2.74.11,3.29-1.54.62-1.89,1.55-3.68,2.33-5.52l8.25-19.47-.32-.54c-.85.38-2.18.55-2.46,1.18C234.3,143.08,230.68,151.69,227,160.43Zm-37.72,0c1.72.53,2.6.15,3.26-1.5,2.58-6.34,5.34-12.61,8-18.91.87-2.05,1.71-4.12,2.56-6.18-1.86-.58-2.67.06-3.28,1.6-1.54,3.92-3.27,7.75-4.91,11.63C193,151.51,191.14,156,189.25,160.43ZM718.18,12.94c.25.65.49,1.31.76,2,3.26,7.68,6.58,15.33,9.75,23,.68,1.65,1.52,2.19,3.26,1.53-.31-.78-.59-1.51-.89-2.22-3.2-7.55-6.46-15.07-9.59-22.65C720.81,13,720,12.26,718.18,12.94ZM473,174.12a4.54,4.54,0,0,0,.17.72c3.51,8.27,7.05,16.53,10.5,24.82.67,1.61,1.72,1.37,3.06,1.13-.27-.72-.5-1.39-.78-2-3.26-7.68-6.58-15.34-9.76-23C475.51,174.15,474.71,173.57,473,174.12Zm132,0c.11.38.17.66.27.92,3.49,8.2,7,16.38,10.43,24.61.67,1.61,1.71,1.36,3.09,1.12-.32-.79-.6-1.51-.9-2.22-3.23-7.61-6.51-15.2-9.67-22.84C607.59,174.17,606.79,173.56,605,174.13Zm334.4-54c-.28-.74-.48-1.34-.73-1.92-3.29-7.74-6.64-15.45-9.84-23.23-.68-1.63-1.58-2-3.17-1.43.17.49.3,1,.49,1.41,3.34,7.87,6.74,15.72,10,23.62C936.82,120.14,937.63,120.71,939.41,120.12Zm-678.9,81.34a13.05,13.05,0,0,0-.3-1.35c-3.54-8.34-7.1-16.67-10.6-25-.68-1.61-1.73-1.15-3-1,3.71,8.72,7.29,17.27,11,25.75C257.9,200.56,259.23,200.79,260.51,201.46Zm99.38-27.35a6.22,6.22,0,0,0,.24.89c3.49,8.21,7,16.39,10.45,24.62.69,1.66,1.69,1.49,3.09,1.06-3.56-8.38-7.12-16.62-10.56-24.92C362.48,174.23,361.71,173.57,359.89,174.11ZM322.17,53.22a8.41,8.41,0,0,0,.26.94c3.48,8.19,7,16.37,10.42,24.59.68,1.62,1.72,1.33,3.08,1.12-.32-.8-.58-1.53-.88-2.24-3.24-7.6-6.52-15.18-9.69-22.81C324.73,53.28,324,52.62,322.17,53.22ZM698.5,120.13c1.91.58,2.72-.06,3.31-1.61,1.34-3.45,2.88-6.83,4.33-10.24l6.24-14.71c-1.93-.72-2.76.06-3.35,1.67-.85,2.34-1.93,4.6-2.9,6.9ZM375.55,43.05c.42-1.58.09-2.35-1.67-2.25s-3.71,0-5.56,0H357.19v2.22ZM73.8,41H55.37V43H73.8ZM55.38,81.21v2.14H73.9l-.1-2.14Zm1056.05,2.13h18.48V81.28h-18.48Zm0,120.89H1130c0-.77-.1-1.38-.14-2h-18.5ZM73.8,121.58H55.39v2.07H73.8Zm301.84,40.34H357c0,.78.07,1.38.1,2h18.51Zm75.45,0H432.45c.07.8.13,1.4.18,2h18.46Zm0-120.92H432.46c.07.8.12,1.4.17,2h18.46Zm-415,161.22H17.47l.13,2H36.11Zm56.94,2h18.49V202.2H93.05Zm961.8-80.59h18.73c0-.78-.09-1.45-.14-2.13H1055C1055,122.25,1054.91,122.87,1054.85,123.67ZM677.31,81.28H658.87v2.06h18.44Zm170.14,2.08h18.43V81.28H847.45ZM960.66,2.75h18.42V.63H960.66ZM828.19,81.26H809.77v2.06h18.52C828.25,82.57,828.22,82,828.19,81.26Zm0-78.5V.68H809.73V2.76ZM998.39,83.34H1017c0-.78-.07-1.44-.1-2H998.27C998.31,82.11,998.35,82.72,998.39,83.34ZM470.19,164h18.54c0-.78-.08-1.44-.11-2.08H470.19Zm75.47,0H564.2c0-.79-.08-1.44-.11-2.07H545.66Zm358-42.39h-18.4v2.1h18.4ZM545.66,43H564.2c-.05-.79-.08-1.44-.12-2.06H545.66Zm-57-2.06H470.11c0,.8.07,1.45.1,2.07h18.42Zm339.55,0H809.79v2.11h18.39ZM639.57,202.19H621.05c0,.8.06,1.44.1,2.08h18.42Zm188.61,0H809.73v2h18.45Zm19.14,2H866c0-.76-.09-1.37-.14-2.08H847.52C847.45,202.85,847.39,203.45,847.32,204.24Zm94.08-2.05H922.93v2.07H941.4ZM734,204.29c0-.81-.08-1.41-.12-2.07H715.37c0,.77.07,1.37.1,2.07Zm-561.15-95.2h9.61v-2.4h-9.61Zm28.6-40.31-.12-2.42h-9.58v2.42Zm-19-2.38h-9.54v2.38h9.54Zm691.25,27c.18,2.65.33,5.08.5,7.58h2.7c.15-2.55.3-5,.45-7.58Zm-132,.06c.16,2.6.3,5,.45,7.45h2.73c.15-2.54.28-4.94.42-7.45Zm396,0c.17,2.61.32,5,.48,7.5h2.69c.16-2.51.31-5,.47-7.5ZM154,106.63l.11,2.42h9.71l-.13-2.42Zm45.13,8a2.65,2.65,0,0,0-2.63-2.78c-1.66-.07-2.59,1-2.75,2.66a2.69,2.69,0,1,0,5.38.12ZM212.6,74.06a2.88,2.88,0,0,0,2.62,3A2.76,2.76,0,0,0,218,74.32a2.59,2.59,0,0,0-2.61-2.8C213.68,71.45,212.85,72.6,212.6,74.06ZM133.86,93.71c2.68,1.11,4.07,4,7.59,3.29C139.24,95,137.77,92.32,133.86,93.71ZM160,56.77c-2.73-3.76-3.55-4.17-7.17-3.38C155.4,54.59,156.8,57.4,160,56.77Z"/><path class="cls-2" d="M715,.7v2H602.27l-.12-2Z"/><path class="cls-2" d="M130.78,2.73v-2c.64-.06,1.19-.17,1.74-.17q45.09,0,90.18,0c1.55,0,2.57.22,1.86,2.23Z"/><path class="cls-2" d="M337.6,2.8H243.94c0-.69-.07-1.33-.11-2.15.88-.05,1.57-.13,2.26-.13h89.59C338.2.52,338.25.6,337.6,2.8Z"/><path class="cls-2" d="M450.8,2.8H357.14L357,.65c.88-.05,1.57-.13,2.26-.13h89.59C451.4.52,451.46.6,450.8,2.8Z"/><path class="cls-2" d="M470.16,2.74V.69h93.93l.1,2.05Z"/><path class="cls-2" d="M337.78,204.27H262.86v-2.11c.74,0,1.43-.1,2.12-.1q35.36,0,70.72,0C337.21,202,338.47,202.09,337.78,204.27Z"/><path class="cls-2" d="M130.79,204.25v-2h75v2Z"/><path class="cls-2" d="M36.45,2.73V.66H92.66l.11,2.07Z"/><path class="cls-2" d="M432.18,202.21v2H376v-2Z"/><path class="cls-2" d="M168.43,43V41h56.23l.1,2Z"/><path class="cls-2" d="M1036.13,83.35V81.29h56v2.06Z"/><path class="cls-2" d="M1092.18,202.18v2.07h-56v-2.07Z"/><path class="cls-2" d="M489.06,204.26v-2.07h56.16c0,.63.07,1.29.11,2.07Z"/><path class="cls-2" d="M640,43V41h56.15c0,.64.07,1.29.11,2.08Z"/><path class="cls-2" d="M803.68,11.63l1.4,1.42c-3.94,4.16-6.52,8.72-6.5,14.41s2.47,10.15,6.36,14.25l-1.3,1.55C792.88,35.08,793.46,19.85,803.68,11.63Z"/><path class="cls-2" d="M832.9,13.24l1.49-1.57c9.86,8.18,10.66,22.35,0,31.68l-1.59-1.48c4-4,6.5-8.62,6.47-14.29S836.85,17.29,832.9,13.24Z"/><path class="cls-2" d="M9.09,123.65H6.83V89.59H9.09Z"/><path class="cls-2" d="M122.28,123.71H120V89.58l2.24-.13Z"/><path class="cls-2" d="M461.83,43.05h-2.31V9h2.31Z"/><path class="cls-2" d="M384.08,89.57h2.32v34.09h-2.32Z"/><path class="cls-2" d="M424.09,123.67h-2.3V89.58h2.3Z"/><path class="cls-2" d="M949.9,8.92h2.22V43.05l-2.22.12Z"/><path class="cls-2" d="M987.63,8.92h2.22V43.05l-2.22.12Z"/><path class="cls-2" d="M1197.26,123.71H1195V89.58l2.24-.13Z"/><path class="cls-2" d="M801.19,123.7H799V89.58l2.23-.13Z"/><path class="cls-2" d="M836.7,89.53h2.22v34.13l-2.22.12Z"/><path class="cls-2" d="M987.58,83.3v-34h2.33v34Z"/><path class="cls-2" d="M949.9,89.53h2.22v34.13l-2.22.12Z"/><path class="cls-2" d="M1140.66,164h-2.24V129.88l2.24-.12Z"/><path class="cls-2" d="M1008.72,164h-2.22V129.89l2.22-.14Z"/><path class="cls-2" d="M44.57,170.14h2.25v34.13l-2.25.12Z"/><path class="cls-2" d="M987.62,129.83h2.24V164h-2.24Z"/><path class="cls-2" d="M949.86,164V129.86h2.3V164Z"/><path class="cls-2" d="M914.39,164h-2.23V129.88l2.23-.12Z"/><path class="cls-2" d="M876.65,164h-2.22V129.89l2.22-.14Z"/><path class="cls-2" d="M838.92,164h-2.23V129.88l2.23-.12Z"/><path class="cls-2" d="M233.14,49.27h2.32V83.36h-2.32Z"/><path class="cls-2" d="M384.08,49.27h2.31V83.36h-2.31Z"/><path class="cls-2" d="M424.07,83.37H421.8V49.26l2.27-.11Z"/><path class="cls-2" d="M82.31,170.14h2.24v34.13l-2.24.13Z"/><path class="cls-2" d="M120.05,170.14h2.22v34.12l-2.22.14Z"/><path class="cls-2" d="M799,170.14h2.23v34.14l-2.23.11Z"/><path class="cls-2" d="M836.67,170.2h2.26v34.07h-2.26Z"/><path class="cls-2" d="M952.12,83.4H949.9V49.28l2.22-.14Z"/><path class="cls-2" d="M273.17,123.66h-2.32V89.57h2.32Z"/><path class="cls-2" d="M6.85,129.83H9.07V164l-2.22.13Z"/><path class="cls-2" d="M876.65,204.32h-2.22V170.19l2.22-.13Z"/><path class="cls-2" d="M914.39,204.32h-2.22V170.19l2.22-.13Z"/><path class="cls-2" d="M1102.92,204.32h-2.22V170.2l2.22-.14Z"/><path class="cls-2" d="M799,129.83h2.23V164l-2.23.11Z"/><path class="cls-2" d="M1140.71,170.24v34h-2.34v-34Z"/><path class="cls-2" d="M952.12,204.32H949.9V170.19l2.22-.13Z"/><path class="cls-2" d="M424.11,164h-2.26V129.87h2.26Z"/><path class="cls-2" d="M384.09,129.88h2.31V164h-2.31Z"/><path class="cls-2" d="M84.56,164H82.3V129.89h2.26Z"/><path class="cls-2" d="M44.58,129.83h2.23V164l-2.23.13Z"/><path class="cls-2" d="M1186.51,81.26v2.09h-37.29V81.26Z"/><path class="cls-2" d="M319,161.88V164H281.66l-.09-2.08Z"/><path class="cls-2" d="M281.63,43V41H319l.12,2Z"/><path class="cls-2" d="M187,161.94v2H149.68l-.18-2Z"/><path class="cls-2" d="M1149,121.55h37.44c.07.67.12,1.28.19,2.06h-37.47C1149.15,123,1149.1,122.43,1149,121.55Z"/><path class="cls-2" d="M790.46,81.27v2.07H753.22c0-.62-.07-1.27-.11-2.07Z"/><path class="cls-2" d="M1016.86,121.62v2H979.53v-2Z"/><path class="cls-2" d="M922.53,81.3v2H885.18c0-.64-.06-1.26-.1-2Z"/><path class="cls-2" d="M1055.05,164c-.36-1.45-.22-2.24,1.4-2.24,11.63.05,23.25,0,34.88.05a4.55,4.55,0,0,1,.8.15v2Z"/><path class="cls-2" d="M696.17,121.58v2.07H658.86v-2.07Z"/><path class="cls-2" d="M753.21,123.64v-2h37.22c0,.6.09,1.26.14,2Z"/><path class="cls-2" d="M1016.84,202.24v2H979.61c-.26-1.2-.61-2.25,1.31-2.25,11.71,0,23.42,0,35.13,0A4.72,4.72,0,0,1,1016.84,202.24Z"/><path class="cls-2" d="M648.07,170.14h2.25v34.15h-2.25Z"/><path class="cls-2" d="M572.61,8.92h2.25V43.06h-2.25Z"/><path class="cls-2" d="M612.59,43.07h-2.26V9l2.26-.16Z"/><path class="cls-2" d="M610.35,89.57h2.31v34.09h-2.31Z"/><path class="cls-2" d="M537.14,123.67h-2.27V89.58h2.27Z"/><path class="cls-2" d="M497.09,123.66v-34h2.37v34.05Z"/><path class="cls-2" d="M499.39,83.4h-2.23V49.27l2.23-.13Z"/><path class="cls-2" d="M534.9,49.22h2.23V83.35l-2.23.13Z"/><path class="cls-2" d="M610.33,49.26h2.3v34h-2.3Z"/><path class="cls-2" d="M648.1,49.22h2.23V83.35l-2.23.13Z"/><path class="cls-2" d="M706.93,204.3h-2.21V170.22h2.21Z"/><path class="cls-2" d="M537.12,164h-2.21V129.87l2.21-.1Z"/><path class="cls-2" d="M612.59,164h-2.21V129.91h2.21Z"/><path class="cls-2" d="M499.39,164h-2.22V129.91h2.22Z"/><path class="cls-2" d="M742.46,170.16h2.19v34.12l-2.19.1Z"/><path class="cls-2" d="M706.92,164h-2.2V129.87l2.2-.1Z"/><path class="cls-2" d="M648.11,129.85h2.21v34.09h-2.21Z"/><path class="cls-2" d="M744.65,164h-2.2V129.87l2.2-.1Z"/><path class="cls-2" d="M561.44,174.18q-3.15,7.47-6.32,14.94c-1.42,3.34-2.94,6.65-4.24,10-.6,1.58-1.43,2.17-3.18,1.62a15.83,15.83,0,0,1,.49-1.52c3.31-7.81,6.67-15.6,9.91-23.43C558.76,174.23,559.57,173.49,561.44,174.18Z"/><path class="cls-2" d="M963.32,174.16c1.8-.58,2.63-.07,3.28,1.52,3.21,7.78,6.56,15.49,9.85,23.23.25.58.44,1.19.65,1.78l-.36.56c-.84-.47-2.13-.73-2.44-1.42C970.57,191.35,967,182.82,963.32,174.16Z"/><path class="cls-2" d="M109.55,39.52c-1.86.66-2.64-.1-3.3-1.7C103.1,30.17,99.82,22.58,96.59,15c-.27-.65-.52-1.31-.8-2,1.78-.69,2.58,0,3.25,1.58,3.19,7.7,6.5,15.36,9.77,23C109.08,38.21,109.3,38.87,109.55,39.52Z"/><path class="cls-2" d="M340.15,200.8c3.22-7.59,6.37-15,9.51-22.41a24.73,24.73,0,0,0,1.07-2.56c.49-1.69,1.46-2.33,3.32-1.65q-3.12,7.38-6.24,14.75c-1.45,3.42-2.92,6.82-4.38,10.23C342.64,201,342.64,201,340.15,200.8Z"/><path class="cls-2" d="M240.86,13l-8.37,19.73c-.73,1.71-1.57,3.37-2.16,5.12s-1.39,2.42-3.33,1.67q2.85-6.72,5.71-13.5c1.61-3.81,3.31-7.59,4.83-11.43C238.14,13,238.92,12.3,240.86,13Z"/><path class="cls-2" d="M147.27,160.52c-1.26.14-2.32.5-3-1.12-3.44-8.3-7-16.55-10.5-24.82a5.35,5.35,0,0,1-.18-.74c1.2-.27,2.23-.64,2.9,1,3.47,8.28,7,16.54,10.52,24.81C147.11,159.86,147.16,160.14,147.27,160.52Z"/><path class="cls-2" d="M341,12.2c1.24.67,2.55.92,2.85,1.62,3.74,8.47,7.33,17,11,25.72-1.31.19-2.38.64-3-1-3.5-8.35-7.07-16.68-10.6-25A8.83,8.83,0,0,1,341,12.2Z"/><path class="cls-2" d="M321.31,160.43c3.69-8.69,7.27-17.24,11-25.72.3-.68,1.53-1,2.33-1.42l.54.55c-.35.88-.69,1.76-1.06,2.63-3.18,7.48-6.43,14.93-9.52,22.45C323.92,160.55,323.06,161,321.31,160.43Z"/><path class="cls-2" d="M127.74,133.86l-8.47,19.95c-.69,1.64-1.5,3.24-2.07,4.92s-1.42,2.39-3.34,1.69q2.82-6.67,5.64-13.33c1.64-3.88,3.37-7.71,4.91-11.62C125,133.94,125.79,133.25,127.74,133.86Z"/><path class="cls-2" d="M227.86,93.5c1.58-.5,2.46-.1,3.13,1.52,3.46,8.36,7,16.66,10.65,25.14-1.36.19-2.41.57-3.08-1-3.47-8.28-7-16.53-10.52-24.8A4.26,4.26,0,0,1,227.86,93.5Z"/><path class="cls-2" d="M15.25,200.81c-1.35.19-2.4.45-3.07-1.16C8.76,191.42,5.24,183.24,1.76,175a7,7,0,0,1-.25-.84c1.71-.69,2.52-.08,3.19,1.55,3.18,7.71,6.5,15.36,9.76,23C14.74,199.42,15,200.08,15.25,200.81Z"/><path class="cls-2" d="M1020,174.15c1.56-.49,2.48-.24,3.17,1.42,3.23,7.84,6.61,15.61,9.93,23.42.24.57.41,1.17.62,1.75-1.71.56-2.54,0-3.2-1.54-3.23-7.84-6.6-15.62-9.92-23.43C1020.37,175.26,1020.2,174.72,1020,174.15Z"/><path class="cls-2" d="M279.29,160.44c-1.83.58-2.63-.06-3.26-1.6-3.25-7.84-6.62-15.63-9.93-23.44-.22-.51-.37-1-.55-1.57,1.64-.53,2.52-.11,3.18,1.5,3.18,7.72,6.51,15.37,9.77,23C278.78,159,279,159.7,279.29,160.44Z"/><path class="cls-2" d="M264.7,79.82c3.71-8.73,7.33-17.34,11.09-25.88.27-.63,1.59-.8,2.42-1.19l.37.55-7.19,16.89c-1.14,2.69-2.4,5.34-3.39,8.08C267.41,79.9,266.52,80.38,264.7,79.82Z"/><path class="cls-2" d="M354.06,53.24q-3.21,7.59-6.41,15.14c-1.4,3.28-2.9,6.52-4.17,9.85-.6,1.57-1.42,2.16-3.17,1.63.16-.49.27-1,.47-1.5,3.35-7.87,6.75-15.72,10-23.63C351.46,53.1,352.34,52.69,354.06,53.24Z"/><path class="cls-2" d="M113.84,39.51c3.69-8.67,7.27-17.21,11-25.69.3-.69,1.52-1,2.31-1.46l.55.56c-.35.87-.67,1.76-1,2.63C123.47,23,120.22,30.48,117.13,38,116.47,39.59,115.63,40.08,113.84,39.51Z"/><path class="cls-2" d="M1108.41,133.8c-2.87,6.75-5.65,13.31-8.43,19.86-.72,1.7-1.56,3.37-2.15,5.12s-1.48,2.29-3.32,1.62q3.66-8.66,7.33-17.3l3.27-7.67C1105.9,133.57,1105.9,133.57,1108.41,133.8Z"/><path class="cls-2" d="M341,133.82c1.71-.55,2.54,0,3.19,1.56,3.16,7.65,6.45,15.24,9.69,22.85.3.72.56,1.45.87,2.25-1.32.22-2.37.52-3-1.1-3.46-8.3-7-16.55-10.52-24.82A5.5,5.5,0,0,1,341,133.82Z"/><path class="cls-2" d="M90.72,79.89c-1.36.19-2.41.45-3.08-1.16-3.41-8.24-6.93-16.42-10.41-24.62a7.86,7.86,0,0,1-.25-.85c1.72-.68,2.52,0,3.19,1.57,3.18,7.71,6.5,15.36,9.77,23C90.21,78.51,90.44,79.17,90.72,79.89Z"/><path class="cls-2" d="M434.52,200.73c1.9-4.48,3.77-8.93,5.66-13.38,1.65-3.87,3.38-7.71,4.92-11.63.61-1.57,1.44-2.16,3.29-1.57q-2.06,4.9-4.11,9.76c-2.18,5.12-4.44,10.2-6.51,15.36C437.11,200.91,436.22,201.27,434.52,200.73Z"/><path class="cls-2" d="M128.4,79.87c-1.3.23-2.34.49-3-1.12-3.44-8.29-7-16.54-10.5-24.81a5.52,5.52,0,0,1-.17-.77c1.2-.15,2.25-.58,2.92,1,3.44,8.22,7,16.41,10.43,24.61A10.89,10.89,0,0,1,128.4,79.87Z"/><path class="cls-2" d="M679.64,79.81,689,57.64a28.8,28.8,0,0,0,1.16-2.76c.5-1.67,1.46-2.32,3.31-1.61q-4.17,9.85-8.34,19.68c-.76,1.77-1.64,3.5-2.24,5.32C682.38,79.89,681.48,80.41,679.64,79.81Z"/><path class="cls-2" d="M717.37,79.81l9.41-22.18a28.8,28.8,0,0,0,1.16-2.76c.5-1.68,1.46-2.3,3.31-1.6L722.9,73c-.76,1.77-1.64,3.49-2.24,5.31C720.11,79.91,719.19,80.39,717.37,79.81Z"/><path class="cls-2" d="M1033.07,93.53c-2.77,6.53-5.5,13-8.22,19.37-.78,1.84-1.68,3.64-2.33,5.52-.57,1.63-1.41,2.4-3.34,1.69l6-14.12c1.53-3.61,3.16-7.18,4.58-10.83C1030.33,93.61,1031.14,93,1033.07,93.53Z"/><path class="cls-2" d="M1095.36,93.51c1.7-.54,2.52,0,3.17,1.57,3.16,7.65,6.45,15.24,9.69,22.85.3.71.56,1.44.87,2.26-1.32.2-2.38.5-3-1.11-3.44-8.3-7-16.55-10.5-24.82A5.56,5.56,0,0,1,1095.36,93.51Z"/><path class="cls-2" d="M19.51,39.5l7.54-17.75c1-2.42,2.18-4.81,3.06-7.29.58-1.65,1.5-2.09,3.28-1.52-1.14,2.68-2.27,5.35-3.41,8-2.39,5.64-4.84,11.26-7.15,16.94C22.21,39.41,21.44,40.12,19.51,39.5Z"/><path class="cls-2" d="M14.5,53.24c-.55,1.31-1.08,2.6-1.63,3.9-3,7-6,14-8.91,21.07-.62,1.52-1.39,2.2-3.29,1.61C2,76.71,3.27,73.6,4.58,70.51,6.81,65.26,9.12,60,11.24,54.75,11.89,53.13,12.75,52.68,14.5,53.24Z"/><path class="cls-2" d="M52.24,53.27Q49.14,60.65,46,68c-1.45,3.41-3,6.78-4.33,10.24-.61,1.58-1.45,2.15-3.2,1.59.2-.56.36-1.14.6-1.7,3.28-7.74,6.62-15.46,9.83-23.23C49.57,53.31,50.36,52.57,52.24,53.27Z"/><path class="cls-2" d="M222,174.16l-8.37,19.74c-.76,1.77-1.65,3.49-2.25,5.31-.54,1.67-1.49,2.09-3.26,1.52Q211,194,213.84,187.2c1.61-3.81,3.32-7.58,4.83-11.42C219.28,174.25,220.05,173.54,222,174.16Z"/><path class="cls-2" d="M227,160.43c3.71-8.74,7.33-17.35,11.09-25.89.28-.63,1.61-.8,2.46-1.18l.32.54-8.25,19.47c-.78,1.84-1.71,3.63-2.33,5.52C229.71,160.54,228.78,161,227,160.43Z"/><path class="cls-2" d="M189.25,160.43c1.89-4.46,3.76-8.92,5.65-13.36,1.64-3.88,3.37-7.71,4.91-11.63.61-1.54,1.42-2.18,3.28-1.6-.85,2.06-1.69,4.13-2.56,6.18-2.68,6.3-5.44,12.57-8,18.91C191.85,160.58,191,161,189.25,160.43Z"/><path class="cls-2" d="M718.18,12.94c1.84-.68,2.63.06,3.29,1.66,3.13,7.58,6.39,15.1,9.59,22.65.3.71.58,1.44.89,2.22-1.74.66-2.58.12-3.26-1.53-3.17-7.72-6.49-15.37-9.75-23C718.67,14.25,718.43,13.59,718.18,12.94Z"/><path class="cls-2" d="M473,174.12c1.74-.55,2.54,0,3.19,1.59,3.18,7.71,6.5,15.37,9.76,23,.28.64.51,1.31.78,2-1.34.24-2.39.48-3.06-1.13-3.45-8.29-7-16.55-10.5-24.82A4.54,4.54,0,0,1,473,174.12Z"/><path class="cls-2" d="M605,174.13c1.78-.57,2.58,0,3.22,1.59,3.16,7.64,6.44,15.23,9.67,22.84.3.71.58,1.43.9,2.22-1.38.24-2.42.49-3.09-1.12-3.42-8.23-6.94-16.41-10.43-24.61C605.18,174.79,605.12,174.51,605,174.13Z"/><path class="cls-2" d="M939.41,120.12c-1.78.59-2.59,0-3.24-1.55-3.27-7.9-6.67-15.75-10-23.62-.19-.45-.32-.92-.49-1.41,1.59-.52,2.49-.2,3.17,1.43,3.2,7.78,6.55,15.49,9.84,23.23C938.93,118.78,939.13,119.38,939.41,120.12Z"/><path class="cls-2" d="M260.51,201.46c-1.28-.67-2.61-.9-2.91-1.59-3.74-8.48-7.32-17-11-25.75,1.31-.19,2.36-.65,3,1,3.5,8.36,7.06,16.69,10.6,25A13.05,13.05,0,0,1,260.51,201.46Z"/><path class="cls-2" d="M359.89,174.11c1.82-.54,2.59.12,3.22,1.65,3.44,8.3,7,16.54,10.56,24.92-1.4.43-2.4.6-3.09-1.06-3.43-8.23-7-16.41-10.45-24.62A6.22,6.22,0,0,1,359.89,174.11Z"/><path class="cls-2" d="M322.17,53.22c1.79-.6,2.56.06,3.19,1.6,3.17,7.63,6.45,15.21,9.69,22.81.3.71.56,1.44.88,2.24-1.36.21-2.4.5-3.08-1.12-3.41-8.22-6.94-16.4-10.42-24.59A8.41,8.41,0,0,1,322.17,53.22Z"/><path class="cls-2" d="M698.5,120.13l7.63-18c1-2.3,2-4.56,2.9-6.9.59-1.61,1.42-2.39,3.35-1.67l-6.24,14.71c-1.45,3.41-3,6.79-4.33,10.24C701.22,120.07,700.41,120.71,698.5,120.13Z"/><path class="cls-2" d="M375.55,43.05H357.19V40.83h11.13c1.85,0,3.71.08,5.56,0S376,41.47,375.55,43.05Z"/><path class="cls-2" d="M73.8,41V43H55.37V41Z"/><path class="cls-2" d="M55.38,81.21H73.8l.1,2.14H55.38Z"/><path class="cls-2" d="M1111.43,83.34V81.28h18.48v2.06Z"/><path class="cls-2" d="M1111.4,204.23v-2h18.5c0,.62.09,1.23.14,2Z"/><path class="cls-2" d="M73.8,121.58v2.07H55.39v-2.07Z"/><path class="cls-2" d="M375.64,161.92v2H357.13c0-.63-.06-1.23-.1-2Z"/><path class="cls-2" d="M451.09,161.94v2H432.63c-.05-.57-.11-1.17-.18-2Z"/><path class="cls-2" d="M451.09,41v2H432.63c-.05-.57-.1-1.17-.17-2Z"/><path class="cls-2" d="M36.11,202.24v2H17.6l-.13-2Z"/><path class="cls-2" d="M93.05,204.26V202.2h18.49v2.06Z"/><path class="cls-2" d="M1054.85,123.67c.06-.8.11-1.42.17-2.13h18.42c0,.68.09,1.35.14,2.13Z"/><path class="cls-2" d="M677.31,81.28v2.06H658.87V81.28Z"/><path class="cls-2" d="M847.45,83.36V81.28h18.43v2.08Z"/><path class="cls-2" d="M960.66,2.75V.63h18.42V2.75Z"/><path class="cls-2" d="M828.19,81.26c0,.7.06,1.31.1,2.06H809.77V81.26Z"/><path class="cls-2" d="M828.18,2.76H809.73V.68h18.45Z"/><path class="cls-2" d="M998.39,83.34c0-.62-.08-1.23-.12-2h18.58c0,.59.06,1.25.1,2Z"/><path class="cls-2" d="M470.19,164v-2.08h18.43c0,.64.07,1.3.11,2.08Z"/><path class="cls-2" d="M545.66,164v-2.07h18.43c0,.63.07,1.28.11,2.07Z"/><path class="cls-2" d="M903.65,121.57v2.1h-18.4v-2.1Z"/><path class="cls-2" d="M545.66,43V41h18.42c0,.62.07,1.27.12,2.06Z"/><path class="cls-2" d="M488.63,41V43H470.21c0-.62-.06-1.27-.1-2.07Z"/><path class="cls-2" d="M828.18,41v2.11H809.79V41Z"/><path class="cls-2" d="M639.57,202.19v2.08H621.15c0-.64-.07-1.28-.1-2.08Z"/><path class="cls-2" d="M828.18,202.21v2H809.73v-2Z"/><path class="cls-2" d="M847.32,204.24c.07-.79.13-1.39.2-2.08H865.9c.05.71.09,1.32.14,2.08Z"/><path class="cls-2" d="M941.4,202.19v2.07H922.93v-2.07Z"/><path class="cls-2" d="M734,204.29H715.47c0-.7-.06-1.3-.1-2.07h18.52C733.93,202.88,734,203.48,734,204.29Z"/><path class="cls-2" d="M172.86,109.09v-2.4h9.61v2.4Z"/><path class="cls-2" d="M201.46,68.78h-9.7V66.36h9.58Z"/><path class="cls-2" d="M182.47,66.4v2.38h-9.54V66.4Z"/><path class="cls-2" d="M873.72,93.38h3.65c-.15,2.55-.3,5-.45,7.58h-2.7C874.05,98.46,873.9,96,873.72,93.38Z"/><path class="cls-2" d="M741.75,93.44h3.6c-.14,2.51-.27,4.91-.42,7.45H742.2C742.05,98.43,741.91,96,741.75,93.44Z"/><path class="cls-2" d="M1137.72,93.44h3.64c-.16,2.55-.31,5-.47,7.5h-2.69C1138,98.48,1137.89,96.05,1137.72,93.44Z"/><path class="cls-2" d="M154,106.63h9.69l.13,2.42H154.1Z"/><path class="cls-2" d="M199.12,114.61a2.69,2.69,0,1,1-5.38-.12c.16-1.61,1.09-2.73,2.75-2.66A2.65,2.65,0,0,1,199.12,114.61Z"/><path class="cls-2" d="M212.6,74.06c.25-1.46,1.08-2.61,2.76-2.54a2.59,2.59,0,0,1,2.61,2.8A2.76,2.76,0,0,1,215.22,77,2.88,2.88,0,0,1,212.6,74.06Z"/><path class="cls-2" d="M133.86,93.71c3.91-1.39,5.38,1.25,7.59,3.29C137.93,97.74,136.54,94.82,133.86,93.71Z"/><path class="cls-2" d="M160,56.77c-3.24.63-4.64-2.18-7.17-3.38C156.49,52.6,157.31,53,160,56.77Z"/></g></g></svg>